<svg xmlns="http://www.w3.org/2000/svg" width="93.75" viewBox="0 0 93.75 93.75" height="93.75" version="1.0"><defs><clipPath id="a"><path d="M 73 37.03125 L 84.375 37.03125 L 84.375 58 L 73 58 Z M 73 37.03125"/></clipPath><clipPath id="b"><path d="M 70 37.03125 L 81 37.03125 L 81 58 L 70 58 Z M 70 37.03125"/></clipPath><clipPath id="c"><path d="M 9.375 37.03125 L 73 37.03125 L 73 58 L 9.375 58 Z M 9.375 37.03125"/></clipPath></defs><g clip-path="url(#a)"><path fill="#097939" d="M 73.664062 57.175781 L 84.375 47.40625 L 79.300781 37.300781 Z M 73.664062 57.175781" fill-rule="evenodd"/></g><g clip-path="url(#b)"><path fill="#ED752E" d="M 70.058594 57.175781 L 80.769531 47.40625 L 75.695312 37.300781 Z M 70.058594 57.175781" fill-rule="evenodd"/></g><g clip-path="url(#c)"><path fill="#747474" d="M 18.878906 37.414062 L 14.371094 53.472656 L 30.378906 53.585938 L 34.773438 37.414062 L 38.832031 37.414062 L 33.558594 56.210938 C 33.359375 56.929688 32.589844 57.515625 31.84375 57.515625 L 11.328125 57.515625 C 10.082031 57.515625 9.34375 56.542969 9.679688 55.34375 L 14.710938 37.414062 Z M 68.367188 37.300781 L 72.425781 37.300781 L 66.789062 57.515625 L 62.617188 57.515625 Z M 39.285156 45.722656 L 59.574219 45.609375 L 60.929688 41.34375 L 40.296875 41.34375 L 41.539062 37.414062 L 63.523438 37.210938 C 64.890625 37.199219 65.703125 38.257812 65.34375 39.578125 L 63.273438 47.148438 C 62.914062 48.46875 61.507812 49.539062 60.140625 49.539062 L 41.988281 49.539062 L 39.847656 57.851562 L 35.902344 57.851562 Z M 39.285156 45.722656" fill-rule="evenodd"/></g></svg>