<svg xmlns="http://www.w3.org/2000/svg" width="93.75" viewBox="0 0 93.75 93.75" height="93.75" version="1.0"><defs><clipPath id="a"><path d="M 12 39 L 50 39 L 50 57.660156 L 12 57.660156 Z M 12 39"/></clipPath><clipPath id="b"><path d="M 51 36 L 82 36 L 82 57.660156 L 51 57.660156 Z M 51 36"/></clipPath></defs><g clip-path="url(#a)"><path fill="#0D47A1" d="M 19.960938 39.074219 L 12.894531 39.074219 C 12.496094 39.074219 12.171875 39.3125 12.171875 39.792969 L 12.105469 56.972656 C 12.105469 57.402344 12.386719 57.617188 12.777344 57.617188 C 13.835938 57.617188 14.703125 57.617188 15.761719 57.617188 C 16.128906 57.617188 16.433594 57.4375 16.433594 57.082031 C 16.433594 55.492188 16.433594 53.527344 16.433594 51.9375 L 19.5 51.949219 C 21.515625 51.820312 22.867188 50.890625 23.429688 49.015625 C 23.597656 48.453125 23.628906 47.964844 23.628906 47.386719 L 23.789062 43.292969 C 23.640625 40.414062 22.128906 39.320312 19.960938 39.074219 Z M 19.308594 46.878906 C 19.308594 47.300781 18.960938 47.644531 18.539062 47.644531 L 16.433594 47.644531 L 16.433594 43.351562 L 18.539062 43.351562 C 18.960938 43.351562 19.308594 43.695312 19.308594 44.117188 Z M 32.207031 39.058594 L 27.269531 39.058594 C 26.894531 39.058594 26.574219 39.175781 26.574219 39.5625 C 26.574219 40.574219 26.574219 41.703125 26.574219 42.710938 C 26.613281 43.132812 26.90625 43.351562 27.324219 43.351562 L 31.441406 43.351562 C 32.296875 43.351562 32.207031 44.742188 31.441406 44.785156 L 29.179688 44.785156 C 26.671875 44.785156 25.085938 47.019531 25.085938 49.273438 C 25.085938 49.875 25.09375 51.285156 25.085938 51.9375 C 25.074219 52.871094 25.066406 53.8125 25.246094 54.65625 C 25.570312 56.144531 26.867188 57.660156 28.832031 57.660156 L 34.929688 57.660156 C 35.710938 57.660156 36.621094 56.984375 36.621094 56.085938 L 36.621094 44.246094 C 36.660156 41.125 35.097656 39.226562 32.207031 39.058594 Z M 32.296875 52.726562 C 32.296875 53.078125 32.003906 53.367188 31.652344 53.367188 L 30.058594 53.367188 C 29.703125 53.367188 29.414062 53.078125 29.414062 52.726562 L 29.414062 49.71875 C 29.414062 49.367188 29.703125 49.078125 30.058594 49.078125 L 31.652344 49.078125 C 32.003906 49.078125 32.296875 49.367188 32.296875 49.71875 Z M 38.066406 39.910156 L 38.066406 47.933594 C 38.246094 50.222656 40.386719 51.9375 42.640625 51.9375 L 44.679688 51.9375 C 45.539062 51.9375 45.488281 53.324219 44.679688 53.324219 L 40.214844 53.324219 C 39.726562 53.324219 39.546875 53.578125 39.546875 54.003906 L 39.546875 57.085938 C 39.546875 57.410156 39.8125 57.652344 40.15625 57.652344 L 44.425781 57.652344 C 47.910156 57.652344 49.605469 55.992188 49.605469 52.277344 L 49.605469 39.625 C 49.605469 39.230469 49.351562 39.078125 49.109375 39.078125 L 45.789062 39.078125 C 45.46875 39.078125 45.277344 39.425781 45.277344 39.683594 L 45.277344 47.148438 C 45.277344 47.433594 45.117188 47.601562 44.859375 47.601562 L 42.984375 47.601562 C 42.601562 47.601562 42.394531 47.394531 42.394531 47.035156 L 42.394531 39.796875 C 42.390625 39.371094 42.21875 39.058594 41.746094 39.058594 C 40.625 39.058594 39.667969 39.058594 38.542969 39.058594 C 38.164062 39.058594 38.066406 39.4375 38.066406 39.910156 Z M 38.066406 39.910156"/></g><g clip-path="url(#b)"><path fill="#00ADEE" d="M 51.101562 42.734375 L 51.101562 39.675781 C 51.101562 39.335938 51.378906 39.058594 51.722656 39.058594 L 52.488281 39.058594 C 54.460938 38.652344 55.15625 38.171875 56.363281 36.882812 C 57.105469 36.085938 57.757812 35.875 58.238281 36.71875 L 58.257812 39.058594 L 60.519531 39.058594 C 60.863281 39.058594 61.140625 39.335938 61.140625 39.675781 L 61.140625 42.734375 C 61.140625 43.074219 60.863281 43.351562 60.519531 43.351562 L 58.257812 43.351562 L 58.257812 57.046875 C 58.257812 57.386719 57.976562 57.660156 57.636719 57.660156 L 54.550781 57.660156 C 54.207031 57.660156 53.929688 57.386719 53.929688 57.046875 L 53.929688 43.351562 L 51.722656 43.351562 C 51.382812 43.351562 51.101562 43.074219 51.101562 42.734375 Z M 74.109375 56.894531 C 74.109375 57.316406 73.757812 57.660156 73.332031 57.660156 L 70.578125 57.660156 C 70.148438 57.660156 69.796875 57.316406 69.796875 56.894531 L 69.796875 44.742188 C 69.796875 42.90625 66.910156 42.90625 66.910156 44.742188 L 66.910156 56.894531 C 66.910156 57.316406 66.5625 57.660156 66.132812 57.660156 L 63.363281 57.660156 C 62.933594 57.660156 62.582031 57.316406 62.582031 56.894531 L 62.582031 39.828125 C 62.582031 39.40625 62.933594 39.058594 63.363281 39.058594 L 66.210938 39.058594 C 66.640625 39.058594 66.988281 39.40625 66.988281 39.828125 L 66.988281 40.246094 C 68.894531 38.433594 71.753906 38.855469 73.359375 40.574219 C 76.382812 37.132812 81.566406 40.199219 81.324219 43.972656 C 81.324219 48.144531 81.285156 52.6875 81.285156 56.894531 C 81.285156 57.316406 80.933594 57.660156 80.511719 57.660156 L 77.785156 57.660156 C 77.355469 57.660156 77.007812 57.316406 77.007812 56.894531 C 77.007812 52.910156 77.007812 48.738281 77.007812 44.820312 C 77.007812 42.949219 74.121094 42.859375 74.121094 44.820312 L 74.121094 56.894531 Z M 74.109375 56.894531"/></g></svg>