<svg xmlns="http://www.w3.org/2000/svg" width="93.75" viewBox="0 0 93.75 93.75" height="93.75" version="1.0"><defs><clipPath id="a"><path d="M 23 52 L 61 52 L 61 61.460938 L 23 61.460938 Z M 23 52"/></clipPath><clipPath id="b"><path d="M 13 39.710938 L 84.199219 39.710938 L 84.199219 53 L 13 53 Z M 13 39.710938"/></clipPath></defs><g clip-path="url(#a)"><path fill="#F90" d="M 57.125 56.765625 C 53.003906 59.859375 47.015625 61.511719 41.867188 61.511719 C 34.648438 61.511719 28.148438 58.796875 23.230469 54.277344 C 22.84375 53.917969 23.1875 53.4375 23.652344 53.710938 C 28.960938 56.855469 35.523438 58.746094 42.300781 58.746094 C 46.871094 58.746094 51.898438 57.78125 56.523438 55.785156 C 57.222656 55.484375 57.804688 56.25 57.121094 56.765625 M 58.839844 54.769531 C 58.3125 54.082031 55.359375 54.445312 54.023438 54.605469 C 53.617188 54.65625 53.558594 54.296875 53.921875 54.039062 C 56.277344 52.351562 60.148438 52.835938 60.601562 53.402344 C 61.054688 53.96875 60.484375 57.917969 58.269531 59.804688 C 57.925781 60.09375 57.601562 59.9375 57.753906 59.554688 C 58.25 58.289062 59.367188 55.457031 58.839844 54.769531" fill-rule="evenodd"/></g><g clip-path="url(#b)"><path fill="#221F1F" d="M 54.117188 42.113281 L 54.117188 40.472656 C 54.113281 40.355469 54.152344 40.257812 54.234375 40.175781 C 54.3125 40.09375 54.410156 40.054688 54.523438 40.058594 L 61.746094 40.058594 C 61.980469 40.058594 62.164062 40.226562 62.164062 40.472656 L 62.164062 41.878906 C 62.164062 42.113281 61.964844 42.421875 61.621094 42.910156 L 57.878906 48.347656 C 59.269531 48.3125 60.738281 48.523438 62 49.246094 C 62.28125 49.410156 62.355469 49.648438 62.382812 49.886719 L 62.382812 51.640625 C 62.382812 51.878906 62.121094 52.15625 61.851562 52.011719 C 59.628906 50.828125 56.675781 50.699219 54.21875 52.023438 C 53.96875 52.164062 53.707031 51.886719 53.707031 51.648438 L 53.707031 49.984375 C 53.707031 49.714844 53.707031 49.261719 53.972656 48.855469 L 58.308594 42.527344 L 54.539062 42.527344 C 54.308594 42.527344 54.121094 42.359375 54.121094 42.113281 M 27.765625 52.359375 L 25.570312 52.359375 C 25.359375 52.34375 25.195312 52.183594 25.175781 51.976562 L 25.175781 40.5 C 25.175781 40.269531 25.367188 40.089844 25.601562 40.089844 L 27.648438 40.089844 C 27.863281 40.097656 28.035156 40.265625 28.050781 40.472656 L 28.050781 41.972656 L 28.089844 41.972656 C 28.625 40.523438 29.628906 39.84375 30.980469 39.84375 C 32.359375 39.84375 33.21875 40.523438 33.835938 41.972656 C 34.367188 40.523438 35.574219 39.84375 36.871094 39.84375 C 37.792969 39.84375 38.800781 40.230469 39.414062 41.101562 C 40.109375 42.066406 39.96875 43.46875 39.96875 44.699219 L 39.964844 51.945312 C 39.964844 52.171875 39.773438 52.359375 39.539062 52.359375 L 37.339844 52.359375 C 37.125 52.34375 36.941406 52.164062 36.941406 51.945312 L 36.941406 45.851562 C 36.941406 45.367188 36.984375 44.160156 36.882812 43.699219 C 36.71875 42.929688 36.226562 42.714844 35.589844 42.714844 C 35.054688 42.714844 34.5 43.074219 34.277344 43.652344 C 34.050781 44.234375 34.070312 45.203125 34.070312 45.851562 L 34.070312 51.9375 C 34.070312 52.167969 33.882812 52.351562 33.648438 52.351562 L 31.449219 52.351562 C 31.226562 52.335938 31.050781 52.15625 31.050781 51.9375 L 31.050781 45.851562 C 31.050781 44.574219 31.257812 42.6875 29.695312 42.6875 C 28.117188 42.6875 28.175781 44.523438 28.175781 45.851562 L 28.175781 51.9375 C 28.175781 52.167969 27.988281 52.351562 27.753906 52.351562 M 68.382812 39.855469 C 71.644531 39.855469 73.410156 42.703125 73.410156 46.328125 C 73.410156 49.828125 71.460938 52.605469 68.382812 52.605469 C 65.1875 52.605469 63.4375 49.753906 63.4375 46.203125 C 63.4375 42.632812 65.203125 39.847656 68.382812 39.847656 M 68.402344 42.1875 C 66.785156 42.1875 66.679688 44.433594 66.679688 45.835938 C 66.679688 47.234375 66.660156 50.230469 68.382812 50.230469 C 70.085938 50.230469 70.167969 47.816406 70.167969 46.34375 C 70.167969 45.375 70.125 44.21875 69.839844 43.300781 C 69.59375 42.5 69.101562 42.1875 68.402344 42.1875 M 77.636719 52.359375 L 75.449219 52.359375 C 75.238281 52.34375 75.054688 52.164062 75.054688 51.945312 L 75.050781 40.464844 C 75.070312 40.253906 75.253906 40.089844 75.476562 40.089844 L 77.511719 40.089844 C 77.703125 40.097656 77.863281 40.230469 77.90625 40.410156 L 77.90625 42.164062 L 77.945312 42.164062 C 78.5625 40.597656 79.421875 39.847656 80.941406 39.847656 C 81.933594 39.847656 82.886719 40.207031 83.507812 41.199219 C 84.074219 42.117188 84.074219 43.664062 84.074219 44.773438 L 84.074219 52 C 84.050781 52.203125 83.867188 52.359375 83.652344 52.359375 L 81.457031 52.359375 C 81.257812 52.34375 81.089844 52.195312 81.066406 52 L 81.066406 45.765625 C 81.066406 44.511719 81.210938 42.671875 79.691406 42.671875 C 79.15625 42.671875 78.667969 43.039062 78.414062 43.589844 C 78.105469 44.292969 78.066406 44.988281 78.066406 45.765625 L 78.066406 51.945312 C 78.0625 52.175781 77.871094 52.359375 77.636719 52.359375 M 48.363281 46.867188 C 48.363281 47.742188 48.386719 48.457031 47.953125 49.242188 C 47.601562 49.867188 47.046875 50.257812 46.429688 50.257812 C 45.585938 50.257812 45.09375 49.601562 45.09375 48.636719 C 45.09375 46.730469 46.769531 46.382812 48.363281 46.382812 L 48.363281 46.867188 M 50.578125 52.320312 C 50.433594 52.453125 50.222656 52.460938 50.058594 52.371094 C 49.332031 51.757812 49.199219 51.46875 48.796875 50.882812 C 47.59375 52.132812 46.738281 52.507812 45.175781 52.507812 C 43.324219 52.507812 41.886719 51.347656 41.886719 49.023438 C 41.886719 47.207031 42.851562 45.972656 44.230469 45.367188 C 45.421875 44.832031 47.089844 44.738281 48.363281 44.589844 L 48.363281 44.300781 C 48.363281 43.769531 48.402344 43.140625 48.09375 42.683594 C 47.828125 42.269531 47.3125 42.101562 46.859375 42.101562 C 46.019531 42.101562 45.277344 42.539062 45.09375 43.445312 C 45.058594 43.648438 44.910156 43.84375 44.710938 43.851562 L 42.582031 43.621094 C 42.402344 43.578125 42.199219 43.433594 42.253906 43.152344 C 42.742188 40.519531 45.078125 39.730469 47.167969 39.730469 C 48.238281 39.730469 49.632812 40.019531 50.476562 40.839844 C 51.546875 41.859375 51.445312 43.214844 51.445312 44.6875 L 51.445312 48.175781 C 51.445312 49.222656 51.871094 49.679688 52.273438 50.246094 C 52.414062 50.449219 52.445312 50.691406 52.265625 50.84375 L 50.582031 52.332031 L 50.578125 52.328125 M 19.554688 46.875 C 19.554688 47.746094 19.574219 48.464844 19.140625 49.246094 C 18.792969 49.875 18.238281 50.261719 17.621094 50.261719 C 16.777344 50.261719 16.285156 49.609375 16.285156 48.644531 C 16.285156 46.738281 17.964844 46.390625 19.550781 46.390625 L 19.550781 46.875 M 21.765625 52.328125 C 21.621094 52.457031 21.414062 52.46875 21.25 52.378906 C 20.519531 51.765625 20.398438 51.476562 19.988281 50.890625 C 18.78125 52.140625 17.929688 52.515625 16.363281 52.515625 C 14.515625 52.515625 13.078125 51.355469 13.078125 49.03125 C 13.078125 47.214844 14.042969 45.980469 15.421875 45.375 C 16.613281 44.84375 18.28125 44.75 19.554688 44.601562 L 19.554688 44.3125 C 19.554688 43.777344 19.59375 43.152344 19.289062 42.691406 C 19.019531 42.277344 18.507812 42.109375 18.054688 42.109375 C 17.214844 42.109375 16.46875 42.546875 16.277344 43.453125 C 16.242188 43.65625 16.097656 43.851562 15.898438 43.863281 L 13.765625 43.628906 C 13.585938 43.589844 13.390625 43.441406 13.441406 43.160156 C 13.929688 40.53125 16.265625 39.738281 18.351562 39.738281 C 19.421875 39.738281 20.820312 40.027344 21.664062 40.851562 C 22.734375 41.867188 22.628906 43.222656 22.628906 44.699219 L 22.628906 48.183594 C 22.628906 49.230469 23.058594 49.6875 23.460938 50.257812 C 23.601562 50.457031 23.632812 50.699219 23.453125 50.851562 L 21.777344 52.332031 L 21.769531 52.328125" fill-rule="evenodd"/></g></svg>